<svg xmlns="http://www.w3.org/2000/svg" xmlns:xlink="http://www.w3.org/1999/xlink" width="240" height="31" viewBox="0 0 240 31">
    <defs>
        <path id="prefix__a" d="M0 0.641L13.305 0.641 13.305 10.746 0 10.746z"/>
        <path id="prefix__c" d="M0.51 0.807L12.37 0.807 12.37 11.774 0.51 11.774z"/>
    </defs>
    <g fill="none" fill-rule="evenodd">
        <path fill="#5E5E5E" d="M64.33 19.155c1.573 0 1.606-.201 1.606-1.239v-2.279c0-.518 0-1.066.723-1.066.724 0 .724.548.724 1.066v2.538c0 1.355 0 2.364-2.645 2.364h-2.61v5.45c0 .49-.033 1.067-.756 1.067-.66 0-.817-.319-.817-1.068V15.35c0-.519.031-1.066.754-1.066.66 0 .819.317.819 1.066v3.806h2.202zm1.448-14.964c.125-.288.283-.605.755-.605.346 0 .723.26.723.692 0 1.153-3.146 5.795-4.058 7.094 1.101-.146 1.289-.175 3.146-.52-.157-.376-.66-1.701-.66-1.845 0-.404.44-.635.754-.635.535 0 .661.375.883.923.062.144 1.51 3.892 1.51 4.238 0 .52-.598.663-.82.663-.093 0-.377-.057-.564-.346-.095-.115-.568-1.529-.663-1.815-2.108.547-5.348.864-5.663.864-.504 0-.819-.317-.819-.75s.535-.49 1.07-.548c.536-.836 1.417-2.162 1.983-2.998-.692-.49-1.637-1.384-2.266-1.902-1.133-.923-1.29-1.01-1.29-1.299 0-.317.346-.72.787-.72.251 0 .346.057.945.576.282-.577 1.572-3.055 1.793-3.574.125-.232.282-.577.724-.577.377 0 .787.231.787.663 0 .375-1.89 4.008-2.205 4.41.537.404.694.55 1.48 1.268.19-.344.881-1.498 1.668-3.257zM58.414 19.07c0 5.536-5.38 8.1-6.01 8.1-.44 0-.597-.374-.597-.633 0-.404.218-.52.628-.779 2.266-1.412 3.588-2.219 4.407-5.218h-2.203c-2.676 0-2.676-1.009-2.676-2.364v-2.538c0-.518 0-1.066.725-1.066.722 0 .722.548.722 1.066v2.279c0 1.038.064 1.24 1.637 1.24h1.92v-3.634c0-.519 0-1.066.756-1.066.691 0 .691.547.691 1.066v3.547zM56.652 3.874c.126-.259.283-.576.725-.576.251 0 .817.202.817.663 0 .519-2.896 5.16-4.72 7.467 1.227-.173 2.454-.346 3.65-.577-.44-.864-.723-1.441-.723-1.73 0-.432.534-.604.786-.604.41 0 .598.374.754.72.379.807 1.67 3.835 1.67 4.383 0 .49-.567.547-.692.547-.379 0-.505-.201-.6-.345-.094-.289-.565-1.472-.66-1.703-1.762.32-5.537.953-6.766.953-.566 0-.723-.432-.723-.692 0-.547.346-.605 1.322-.722.566-.692 1.101-1.412 2.392-3.2-.379-.259-1.92-1.556-2.267-1.815-1.132-.836-1.258-.982-1.258-1.268 0-.319.314-.722.754-.722.253 0 .41.144.694.346.66-1.153 1.73-2.998 1.982-3.46.157-.316.315-.633.754-.633.222 0 .819.201.819.691 0 .433-2.265 4.122-2.39 4.295.564.461 1.132.922 1.698 1.414.723-1.095 1.353-2.25 1.982-3.432zM48.44 15.176h-5.004v5.968c1.511-.346 3.652-.922 5.004-1.326v-4.642zm-5.004-1.181h5.004V9.15h-5.004v4.844zm0-6.055h5.004V3.384h-5.004V7.94zm6.484 18.048c0 .519 0 1.068-.755 1.068-.725 0-.725-.55-.725-1.068v-4.7c-3.619 1.126-7.427 1.845-7.804 1.845-.598 0-.693-.517-.693-.719 0-.23.126-.49.41-.578.22-.087 1.352-.315 1.574-.346V3.384h-.914c-.502 0-1.163 0-1.163-.662 0-.663.628-.663 1.163-.663h10.04c.502 0 1.164 0 1.164.663 0 .662-.662.662-1.165.662H49.92v22.604zM91.562 15.732c0 4.146-.79 6.556-2.466 8.85-.537.706-1.865 2.323-2.433 2.323-.536 0-.821-.382-.821-.793 0-.208.062-.294.22-.47 3.478-3.647 3.826-5.705 3.826-9.91V5.352c0-2 1.641-2.236 2.495-2.352 2.814-.412 5.468-1.119 8.028-2.206.254-.118.506-.206.664-.206.316 0 .79.059.79.882s-3.983 2.087-8.376 2.912c-1.643.323-1.927.47-1.927 1.558v4.88h9.639c.568 0 1.139 0 1.139.706s-.57.706-1.14.706h-2.338v13.643c0 .56 0 1.06-.758 1.06-.885 0-.885-.412-.885-1.06V12.232h-5.657v3.5zm-8.09-4.911c.693-2.205.885-2.706 1.359-5.998h-6.827c.664 2.351 1.168 5.586 1.168 5.998h4.3zm-2.908 8.91c-2.403 3.351-6.068 5.056-6.512 5.056-.315 0-.694-.206-.694-.705 0-.383.22-.53.853-.853 3.54-1.793 5.373-4.174 6.353-6.204h-5.342c-.631 0-1.17 0-1.17-.735s.539-.735 1.17-.735h5.342v-3.323H74.59c-.602 0-1.17 0-1.17-.706 0-.705.568-.705 1.17-.705h3.033c-.348-2.381-.411-2.941-1.137-5.998h-1.011c-.57 0-1.14 0-1.14-.706 0-.676.57-.676 1.14-.676h5.088V1.088c0-.559 0-1.088.758-1.088.759 0 .759.53.759 1.088V3.44h4.805c.567 0 1.168 0 1.168.705 0 .677-.601.677-1.168.677h-.57c-.284 2.028-.696 4.058-1.297 5.998h2.909c.568 0 1.137 0 1.137.705 0 .706-.569.706-1.137.706H82.08v3.323h4.677c.601 0 1.17 0 1.17.735s-.569.735-1.17.735H82.08c1.232 2.322 3.666 4.029 3.982 4.235.283.205.63.47.63.735 0 .617-.347.793-.694.793-.63 0-2.907-2.028-3.918-3.322v6.616c0 .559 0 1.088-.791 1.088-.726 0-.726-.53-.726-1.088v-6.35zM129.533 5.44c-.223 0-.476-.205-.73-.498-.16-.175-.794-.818-1.08-1.11-.063-.06-.063-.147-.063-.235 0-.468.382-.73.668-.73.38 0 2.126 1.344 1.998 1.988-.094.409-.571.584-.793.584zm-9.68 9.505c1.077 0 1.077-.584 1.077-.906v-2.78c0-.321 0-.877-1.078-.877h-4.634c-1.08 0-1.08.556-1.08.878v2.779c0 .322 0 .906 1.08.906h4.634zm.38-5.937c1.523 0 2.221.936 2.221 1.9v3.482c0 1.052-.762 1.9-2.222 1.9h-5.396c-1.522 0-2.222-.935-2.222-1.9v-3.481c0-1.053.762-1.9 2.222-1.9h5.396zm-8.35 11.027c0-.585.193-.614 2.002-.76 2.189-.205 4.03-.468 5.427-.704.445-.086 2.635-.497 2.953-.497.602 0 .665.497.665.702 0 .557-.19.586-2.031.908-3.524.614-7.967 1.11-8.38 1.052-.412-.058-.635-.38-.635-.701zm.32-12.987c-.573 0-1.175 0-1.175-.673 0-.702.602-.702 1.175-.702h12.41c0-.38-.095-1.432-.095-1.813 0-.35.063-.789.762-.789.349 0 .54.058.698.292.095.147.222 2.047.222 2.31h5.683c.57 0 1.142 0 1.142.702 0 .673-.573.673-1.142.673h-5.555c.063.73.443 5.06 1.427 8.453 1.462-2.076 1.81-2.924 3.015-5.937.097-.205.254-.468.637-.468.22 0 .696.088.696.555 0 .556-1.204 4.154-3.84 7.546.699 2.048 1.936 5.001 2.571 5.001.476 0 .762-1.228.985-2.251.19-.907.35-1.376.857-1.376.38 0 .762.148.762.616 0 .409-.286 1.988-.826 3.274-.476 1.172-1.08 1.433-1.65 1.433-1.652 0-3.11-3.275-3.81-5.323-3.65 4.007-6.222 5.148-6.729 5.148-.508 0-.666-.379-.666-.644 0-.378.413-.643.602-.76 2.317-1.462 3.968-2.514 6.254-5.323-.984-3.158-1.524-6.639-1.873-9.944h-12.537zm20.822 17.754c.793 0 1.3-.263 1.3-1.14V3.539c0-.877-.507-1.171-1.3-1.171h-21.522c-.793 0-1.301.294-1.301 1.17v20.124c0 .877.508 1.14 1.301 1.14h21.522zM133.12.906c1.778 0 2.73 1.112 2.73 2.34v20.707c0 1.317-1.048 2.311-2.73 2.311h-21.712c-1.778 0-2.729-1.082-2.729-2.311V3.246c0-1.317 1.047-2.34 2.729-2.34h21.712zM167.165 20.181c.465 1.136 1.428 2.358 2.452 3.377.746.759.84.845.84 1.077 0 .206-.125.788-.714.788-.995 0-4.504-4.776-4.504-6.202 0-.233.124-.672.837-.672.437 0 .498.148 1.089 1.632zm1.055-18.289c.59 0 1.927.03 1.927 1.225 0 1.892-2.362 4.193-4.195 5.416 1.802 1.98 3.294 2.708 4.814 3.523.343.174.404.642.404.698 0 .204-.155.642-.838.642-.312 0-3.851-1.602-6.708-5.183-1.428-1.807-2.609-4.747-2.609-6.64 0-.409.31-.67.776-.67.59 0 .683.436.746.756.404 2.098.713 3.612 2.485 5.795 1.52-.931 3.509-3.056 3.509-3.755 0-.408-.466-.408-.807-.408h-3.292c-.59 0-1.15 0-1.15-.698 0-.7.56-.7 1.15-.7h3.788zm-2.857 9.407c.59 0 1.15 0 1.15.698 0 .73-.56.73-1.15.73h-7.92c-.56 0-1.117 0-1.117-.7 0-.728.527-.728 1.118-.728h7.92zm-3.602 12.929c0 1.137 0 2.476-2.143 2.476-.778 0-2.33-.524-2.952-.786-.248-.116-.59-.262-.59-.67 0-.407.374-.727.746-.727.03 0 2.113.757 2.546.757.778 0 .87-.7.87-1.312V17.5h-7.703c-.558 0-1.15 0-1.15-.67 0-.669.592-.669 1.15-.669h16.587c.558 0 1.117 0 1.117.67s-.559.67-1.117.67h-7.361v6.726zm-5.187-5.155c0 .788-1.43 3.495-2.858 4.864-.435.438-1.707 1.428-2.267 1.428-.466 0-.714-.379-.714-.67 0-.35.185-.467.714-.786 2.143-1.34 2.95-3.262 3.447-4.485.218-.524.372-.902.776-.991.342-.058.902.204.902.64zm1.957-17.18c.993 0 2.11 0 2.11 1.746 0 1.34-1.769 5.767-6.056 8.795-.744.553-2.421 1.603-2.92 1.603-.34 0-.682-.291-.682-.67 0-.35.218-.496.498-.613 1.024-.493 2.328-1.455 2.98-1.98-.808-.465-1.554-.93-2.359-1.251-.684-.293-.995-.437-.995-.844 0-.291.31-.67.715-.67.932 0 3.354 1.397 3.759 1.776.248-.233.62-.64 1.458-1.747-.87-.466-.962-.525-2.516-1.166-.405-.145-.931-.378-.931-.815 0-.262.25-.67.807-.67.684 0 2.95 1.048 3.51 1.369.433-.728 1.026-1.805 1.026-2.533 0-.932-.528-.932-1.274-.932h-3.138c-1.551 2.417-2.762 3.057-3.105 3.057-.465 0-.715-.378-.715-.699 0-.203 0-.349 1.15-1.368.31-.262 1.615-1.72 2.112-3.03.403-1.135.434-1.251.87-1.251.248 0 .837.146.837.64 0 .204-.154.67-.404 1.252h3.263zm-12.672.844c-1.087 0-1.21.554-1.21 1.428v21.928c0 .553 0 1.077-.778 1.077-.777 0-.777-.524-.777-1.077V4.31c0-2.418.435-2.942 2.392-2.942h2.328c1.989 0 2.485.874 2.485 2.418 0 3.057-1.677 5.242-2.485 6.32 1.087 1.193 2.921 3.232 2.921 6.493 0 .407 0 4.31-3.23 4.31-.063 0-2.33 0-2.33-.962 0-.319.217-.726.715-.726.061 0 1.428.26 1.676.26 1.15 0 1.615-1.747 1.615-3.057 0-2.009-1.148-3.67-1.615-4.194-1.024-1.135-1.303-1.426-1.303-1.95 0-.466.153-.699.807-1.601 1.398-2.01 1.709-3.874 1.709-4.747 0-1.195-.746-1.195-1.337-1.195h-1.583zM196.576 7.708c.803 1.129 1.605 1.767 2.406 2.257 1.45-.637 3.239-1.62 3.239-2.083 0-.145-.091-.174-.4-.174h-5.245zm6.17 11.637c0-.782 0-1.158-.091-1.332-.279-.434-.927-.434-1.451-.434h-6.634c0 1.042 0 1.766 1.298 1.766h6.878zm0-13.72c-.525 0-2.037 0-2.037-1.218V3.192c0-.492 0-.955-.862-.955h-2.284c-.77 0-.894.231-1.05.665-.522 1.534-1.91 2.954-2.867 2.954-.462 0-.648-.32-.648-.523 0-.374.246-.548.401-.665 1.14-.81 1.266-1.1 2.035-2.865.34-.782 1.174-.782 1.604-.782h3.177c1.76 0 2.006 1.274 2.006 1.563v1.273c0 .55.65.608.896.608.894 0 .987-.463 1.019-1.215.028-.319.09-.753.708-.753.74 0 .74.521.74.695 0 .202-.031 2.432-1.666 2.432h-1.172zm.216.896c.556 0 1.234.26 1.234.926 0 .521-.278.84-.462 1.042-.278.26-1.45 1.245-3.332 2.17 1.203.465 2.22.726 4.535 1.044.214.029.587.058.587.55 0 .116-.032.608-.619.608-.646 0-3.209-.174-6.045-1.534-2.932 1.128-5.091 1.476-5.676 1.476-.557 0-.648-.434-.648-.55 0-.376.275-.55.553-.608 1.883-.347 2.468-.434 4.444-1.128-1.203-.869-1.913-1.825-2.53-2.81h-.556c-.494 0-1.11 0-1.11-.578 0-.608.616-.608 1.11-.608h8.515zm-14.347 9.756h4.474V14.57h-4.474v1.707zm-2.22-9.061c-.925 1.823-3.516 3.358-4.35 3.358-.062 0-.617-.028-.617-.551 0-.26.093-.318.834-.781 1.727-1.013 2.22-1.447 2.591-2.026h-2.993c-.494 0-1.111 0-1.111-.637 0-.607.617-.636 1.111-.636h3.64c.185-.434.247-.782.28-1.216h-2.439c-.494 1.07-.77 1.129-1.049 1.129-.555 0-.648-.463-.648-.608 0-.26.648-1.304.74-1.535.094-.203.34-1.1.463-1.245.093-.086.278-.202.494-.202.338 0 .648.231.648.52 0 .29-.093.522-.123.668h5.552c.494 0 1.142.027 1.142.637 0 .636-.616.636-1.142.636h-2.343c-.063.666-.125.984-.187 1.216h3.765c.493 0 1.11.029 1.11.636 0 .637-.585.637-1.11.637h-2.284c.803.984 1.575 1.476 2.129 1.796.772.403.864.434.864.693 0 .377-.307.638-.647.638-1.234 0-3.087-1.912-3.949-3.127h-.371zm-6.171 16.095c0 1.331 0 1.65 1.543 1.65h19.437c.833 0 1.172-.059 1.48-.55.031-.058.062-.145.062-1.1h-22.522zm8.362-5.732c-.155 1.274-.833 2.085-1.42 2.46-1.11.725-3.516 1.16-4.688 1.16-.587 0-.587-.552-.587-.581 0-.49.278-.55 1.265-.695 2.282-.318 3.64-.52 3.919-2.344h-5.308c-1.543 0-1.543.319-1.543 1.476v2.954h22.522v-1.476h-7.528c-.648 0-2.129-.203-2.129-2.057v-.897h-4.503zm-6.819-15.458c-1.233 0-1.543.318-1.543 1.333v5.961c0 1.102.772 1.333 1.142 1.333h9.071c.494 0 1.14 0 1.14.608s-.646.608-1.14.608h-9.225c-2.343 0-2.343-1.679-2.343-2.375V2.874c0-1.968 1.944-1.968 2.529-1.968h8.76c.65 0 1.08 0 1.08.607 0 .608-.43.608-1.08.608h-8.39zm12.803 14.156h6.88c.464 0 2.686 0 2.686 1.91v6.166c0 1.911-2.222 1.911-2.686 1.911h-19.929c-.432 0-2.652 0-2.652-1.911v-6.166c0-1.91 2.22-1.91 2.652-1.91h5.615V14.57h-8.577c-.463 0-1.05 0-1.05-.58 0-.55.62-.55 1.05-.55h25.791c.462 0 1.019 0 1.019.578 0 .552-.585.552-1.019.552h-9.78v1.707zM235.985 11.021H224.66c-.596 0-1.16 0-1.16-.705 0-.73.564-.73 1.16-.73h11.325c.564 0 1.127 0 1.127.73 0 .705-.532.705-1.127.705m2.54 0c-.722 0-.722-.556-.722-1.085v-3.34c0-1.026-1.065-1.026-1.537-1.026h-11.981c-1.194 0-1.414.498-1.414 1.348v3.018c0 .5 0 1.085-.751 1.085-.69 0-.69-.586-.69-1.085V6.508c0-2.229 2.383-2.374 2.634-2.374h5.584V1.056c0-.556 0-1.056.784-1.056.753 0 .753.529.753 1.056v3.078h5.364c2.382 0 2.727 1.612 2.727 2.08v3.722c0 .558 0 1.085-.751 1.085m1.067 13.95c-.252 1.203-.974 1.787-1.664 1.787h-3.355c-2.51 0-2.51-1.758-2.51-3.076v-7.297h-3.42c-.092 3.31-1.003 6.36-3.355 8.263-2.04 1.67-4.11 2.229-4.674 2.229-.315 0-.722-.205-.722-.645 0-.353.283-.469 1.067-.763 4.641-1.729 5.772-4.248 6.18-9.084h-5.082c-.597 0-1.13 0-1.13-.733 0-.703.533-.703 1.13-.703h16.593c.597 0 1.129 0 1.129.703 0 .733-.532.733-1.129.733h-5.08v7.678c0 .439.029 1.318 1.504 1.318h2.259c.439 0 .94-.03 1.161-3.164.03-.647.062-1.115.72-1.115.47 0 .786.236.786.675 0 .117-.158 1.934-.408 3.194m-20.42-4.455c-.534.41-1.193.529-2.007.529-1.506 0-3.42-.412-3.42-1.377 0-.412.344-.764.689-.764.189 0 .283.059 1.098.381.597.264 1.192.293 1.57.293 1.44 0 1.88-1.143 1.88-2.549 0-1.76-.846-3.869-2.289-5.451-.503-.586-.815-.908-.815-1.377 0-.53.283-.88.753-1.437.407-.498 1.882-2.286 1.882-4.895 0-.908-.595-.996-1.348-.996h-2.573c-.408 0-1.161 0-1.161 1.261v21.95c0 .558 0 1.086-.753 1.086s-.753-.528-.753-1.086V3.752c0-.938.375-2.227 2.415-2.227h3.578c2.226 0 2.226 1.787 2.226 2.17 0 2.988-1.82 5.244-2.825 6.506 1.194 1.318 3.137 3.457 3.137 6.887 0 1.582-.5 2.783-1.285 3.428"/>
        <g transform="translate(0 9.962)">
            <mask id="prefix__b" fill="#fff">
                <use xlink:href="#prefix__a"/>
            </mask>
            <path fill="#7A7A7A" d="M6.45.644S.406.344 0 5.743c0 1.5 0 5.15 4.773 4.999 2.235 0 8.532-3.9 8.532-4.749 0-.85-.457-5.398-6.856-5.349" mask="url(#prefix__b)"/>
        </g>
        <path fill="#5E5E5E" d="M14.268 11.74s-2.302-2.936.68-4.222c.838 0 4.71.772 1.78 3.81 1.622 0 5.914-3.45 5.914-5.098-.107-2.266-1.99-5.974-6.7-6.23-2.72.05-5.388.464-6.75 4.067-.418 1.546-.156 8.24 5.076 7.673"/>
        <path fill="#7A7A7A" d="M18.834 13.052c.447-.497 1.028-.919 1.495-1.332.773-.686 1.755-1.145 2.744-1.431 1.807-.523 3.73-.38 5.515.16 3.03 1.268 2.322 4.06 1.464 7.26-.494 1.844-2.81 2.19-4.415 2.215-2.343.032-4.618-.75-6.262-2.48-.466-.487-.874-1.044-1.095-1.683-.22-.637-.24-1.365.05-1.975.125-.264.3-.507.504-.734"/>
        <g transform="translate(9.962 19.019)">
            <mask id="prefix__d" fill="#fff">
                <use xlink:href="#prefix__c"/>
            </mask>
            <path fill="#7A7A7A" d="M2.338 1.367s-2.4.956-1.7 5.2c.101 2.174.45 4.35 3.6 5.092 2.05.638 5.2-1.591 5.2-1.591s3.299-2.44 2.898-4.881c-.4-1.91-2.999-5.835-9.998-3.82" mask="url(#prefix__d)"/>
        </g>
    </g>
</svg>
